<svg viewBox="0 0 66 66" fill="none" xmlns="http://www.w3.org/2000/svg">
	<rect x="25" y="48" width="16" height="2" rx="1" fill="#80FFAA" />
	<rect x="31" y="40" width="4" height="9" rx="1" fill="#80FFAA" />
	<path
		d="M43 30C43 31.4445 42.7413 32.8749 42.2388 34.2095C41.7362 35.5441 40.9997 36.7567 40.0711 37.7782C39.1425 38.7996 38.0401 39.6099 36.8268 40.1627C35.6136 40.7155 34.3132 41 33 41C31.6868 41 30.3864 40.7155 29.1732 40.1627C27.9599 39.6099 26.8575 38.7996 25.9289 37.7782C25.0003 36.7567 24.2638 35.5441 23.7612 34.2095C23.2587 32.8749 23 31.4445 23 30"
		stroke="#80FFAA" stroke-width="3" />
	<rect x="27" y="13" width="12" height="23" rx="6" fill="#80FFAA" />
</svg>