<svg viewBox="0 0 66 66" fill="none" xmlns="http://www.w3.org/2000/svg">
	<path fill-rule="evenodd" clip-rule="evenodd"
		d="M27 19C27 15.6863 29.6863 13 33 13C36.3137 13 39 15.6863 39 19V21.3333L28.5849 34.0629C27.6009 32.9942 27 31.5673 27 30V19ZM26.6969 36.3705C26.0579 35.581 25.5385 34.6727 25.165 33.6809C24.7269 32.5175 24.5 31.2664 24.5 30H21.5C21.5 31.6227 21.7904 33.2323 22.3574 34.7381C22.9151 36.2192 23.7314 37.5756 24.7668 38.7294L26.6969 36.3705ZM28.8356 41.6524L30.8499 39.1905C31.5519 39.396 32.2745 39.5 33 39.5C34.0953 39.5 35.1838 39.2629 36.2049 38.7977C37.2265 38.3322 38.1645 37.6455 38.9612 36.7692C39.7581 35.8925 40.397 34.8442 40.835 33.6809C41.2731 32.5175 41.5 31.2664 41.5 30H44.5C44.5 31.6227 44.2096 33.2323 43.6426 34.7381C43.0755 36.244 42.2412 37.6209 41.181 38.7872C40.1205 39.9537 38.8537 40.8875 37.4488 41.5277C36.6609 41.8866 35.8395 42.1487 35 42.3097V48H40C40.5523 48 41 48.4477 41 49C41 49.5523 40.5523 50 40 50H26C25.4477 50 25 49.5523 25 49C25 48.4477 25.4477 48 26 48H31V42.3097C30.261 42.168 29.536 41.9479 28.8356 41.6524ZM33.4755 35.9814L39 29.2293V30C39 33.1537 36.5669 35.7391 33.4755 35.9814Z"
		fill="#F98686" />
	<line x1="42.3518" y1="17.518" x2="18.518" y2="46.6482" stroke="#F98686" stroke-width="5" stroke-linecap="round" />
</svg>