<svg viewBox="0 0 76 76" fill="none" xmlns="http://www.w3.org/2000/svg">
	<circle cx="38" cy="38" r="30" stroke="currentColor" stroke-width="6" />
	<path fill-rule="evenodd" clip-rule="evenodd"
		d="M41 32.4444V28.0199C41 26.4673 39.5417 25.4969 38.375 26.2732L29.0492 32.4787C28.952 32.4594 28.852 32.4493 28.75 32.4493H21.75C20.7835 32.4493 20 33.3523 20 34.4662V42.5338C20 43.6477 20.7835 44.5506 21.75 44.5506H28.75C28.852 44.5506 28.952 44.5406 29.0491 44.5213L30.3893 45.4131L41 32.4444ZM34.5723 48.1964L38.375 50.7268C39.5417 51.5031 41 50.5327 41 48.9801V40.3404L34.5723 48.1964ZM44.4058 36.1777C44.4268 36.2253 44.4472 36.2731 44.4672 36.3212C44.8189 37.1705 45 38.0807 45 39C45 39.9192 44.8189 40.8295 44.4672 41.6788C44.1154 42.5281 43.5998 43.2997 42.9498 43.9497C42.5592 44.3403 42.5592 44.9734 42.9498 45.364C43.3403 45.7545 43.9734 45.7545 44.364 45.364C45.1997 44.5282 45.8626 43.5361 46.3149 42.4441C46.7672 41.3522 47 40.1819 47 39C47 37.8181 46.7672 36.6478 46.3149 35.5558C46.1626 35.1881 45.9864 34.8317 45.7877 34.4887L44.4058 36.1777ZM47.1239 32.8556C47.5329 33.4628 47.8812 34.1108 48.1627 34.7905C48.7155 36.1251 49 37.5555 49 39C49 40.4445 48.7155 41.8749 48.1627 43.2095C47.6099 44.5441 46.7996 45.7567 45.7782 46.7782C45.3877 47.1687 45.3877 47.8019 45.7782 48.1924C46.1687 48.5829 46.8019 48.5829 47.1924 48.1924C48.3996 46.9852 49.3571 45.5521 50.0104 43.9749C50.6638 42.3976 51 40.7072 51 39C51 37.2928 50.6638 35.6023 50.0104 34.0251C49.6011 33.0368 49.0723 32.1051 48.4374 31.2502L47.1239 32.8556ZM49.7379 29.6607C50.6073 30.7535 51.3217 31.9645 51.8582 33.2597C52.612 35.0796 53 37.0302 53 39C53 40.9698 52.612 42.9204 51.8582 44.7402C51.1044 46.5601 49.9995 48.2137 48.6066 49.6066C48.2161 49.9971 48.2161 50.6303 48.6066 51.0208C48.9971 51.4113 49.6303 51.4113 50.0208 51.0208C51.5994 49.4422 52.8516 47.5681 53.706 45.5056C54.5603 43.4431 55 41.2325 55 39C55 36.7675 54.5603 34.5569 53.706 32.4944C53.0427 30.8931 52.1396 29.4054 51.0301 28.0814L49.7379 29.6607Z"
		fill="currentColor" />
	<line x1="49.3518" y1="22.518" x2="25.518" y2="51.6482" stroke="currentColor" stroke-width="5" stroke-linecap="round" />
</svg>