<svg viewBox="0 0 80 80" fill="none" xmlns="http://www.w3.org/2000/svg">
	<rect x="30.3158" y="58.1579" width="19.3684" height="2.42105" rx="1" fill="currentColor" />
	<rect x="37.579" y="48.4737" width="4.84211" height="10.8947" rx="1" fill="currentColor" />
	<path
		d="M52.1053 36.3684C52.1053 38.1171 51.7922 39.8486 51.1838 41.4641C50.5755 43.0797 49.6838 44.5476 48.5598 45.7841C47.4357 47.0206 46.1012 48.0014 44.6325 48.6706C43.1638 49.3398 41.5897 49.6842 40 49.6842C38.4104 49.6842 36.8362 49.3398 35.3676 48.6706C33.8989 48.0014 32.5644 47.0206 31.4403 45.7841C30.3162 44.5476 29.4246 43.0797 28.8162 41.4641C28.2079 39.8486 27.8948 38.1171 27.8948 36.3684"
		stroke="currentColor" stroke-width="3" />
	<rect x="32.7368" y="15.7895" width="14.5263" height="27.8421" rx="7.26316" fill="currentColor" />
</svg>