<svg viewBox="0 0 76 76" xmlns="http://www.w3.org/2000/svg">
	<circle cx="38" cy="38" r="30" stroke="currentColor" stroke-width="6"/>
	<path fill-rule="evenodd" clip-rule="evenodd" d="M29.0491 44.5213C28.9519 44.5406 28.852 44.5506 28.75 44.5506H21.75C20.7835 44.5506 20 43.6477 20 42.5338V34.4662C20 33.3523 20.7835 32.4493 21.75 32.4493H28.75C28.852 32.4493 28.9519 32.4594 29.0492 32.4787L38.375 26.2732C39.5417 25.4969 41 26.4673 41 28.0199V48.9801C41 50.5327 39.5417 51.5031 38.375 50.7268L29.0491 44.5213Z" fill="currentColor"/>
	<path d="M43.6569 33.3431C44.3997 34.086 44.989 34.9679 45.391 35.9385C45.7931 36.9091 46 37.9494 46 39C46 40.0506 45.7931 41.0909 45.391 42.0615C44.989 43.0321 44.3997 43.914 43.6569 44.6568" stroke="currentColor" stroke-width="2" stroke-linecap="round"/>
	<path d="M46.4853 30.5147C47.5996 31.629 48.4835 32.9519 49.0866 34.4078C49.6896 35.8637 50 37.4241 50 39C50 40.5759 49.6896 42.1363 49.0866 43.5922C48.4835 45.0481 47.5996 46.371 46.4853 47.4853" stroke="currentColor" stroke-width="2" stroke-linecap="round"/>
	<path d="M49.3137 27.6863C50.7995 29.172 51.978 30.9358 52.7821 32.8771C53.5862 34.8183 54 36.8988 54 39C54 41.1011 53.5862 43.1817 52.7821 45.1229C51.978 47.0641 50.7995 48.828 49.3137 50.3137" stroke="currentColor" stroke-width="2" stroke-linecap="round"/>
</svg>
