<svg viewBox="0 0 76 76" fill="none" xmlns="http://www.w3.org/2000/svg">
	<circle cx="38" cy="38" r="30" stroke="currentColor" stroke-width="6" />
	<path fill-rule="evenodd" clip-rule="evenodd"
		d="M32 24C32 20.6863 34.6863 18 38 18C41.3137 18 44 20.6863 44 24V26.3333L33.5849 39.0629C32.6009 37.9942 32 36.5673 32 35V24ZM31.6969 41.3705C31.0579 40.581 30.5385 39.6727 30.165 38.6809C29.7269 37.5175 29.5 36.2664 29.5 35H26.5C26.5 36.6227 26.7904 38.2323 27.3574 39.7381C27.9151 41.2192 28.7314 42.5756 29.7668 43.7294L31.6969 41.3705ZM33.8356 46.6524L35.8499 44.1905C36.5519 44.396 37.2745 44.5 38 44.5C39.0953 44.5 40.1838 44.2629 41.2049 43.7977C42.2265 43.3322 43.1645 42.6455 43.9612 41.7692C44.7581 40.8925 45.397 39.8442 45.835 38.6809C46.2731 37.5175 46.5 36.2664 46.5 35H49.5C49.5 36.6227 49.2096 38.2323 48.6426 39.7381C48.0755 41.244 47.2412 42.6209 46.181 43.7872C45.1205 44.9537 43.8537 45.8875 42.4488 46.5277C41.6609 46.8866 40.8395 47.1487 40 47.3097V53H45C45.5523 53 46 53.4477 46 54C46 54.5523 45.5523 55 45 55H31C30.4477 55 30 54.5523 30 54C30 53.4477 30.4477 53 31 53H36V47.3097C35.261 47.168 34.536 46.9479 33.8356 46.6524ZM38.4755 40.9814L44 34.2293V35C44 38.1537 41.5669 40.7391 38.4755 40.9814Z"
		fill="currentColor" />
	<line x1="47.3518" y1="22.518" x2="23.518" y2="51.6482" stroke="currentColor" stroke-width="5" stroke-linecap="round" />
</svg>