<svg viewBox="0 0 100 100" fill="none" xmlns="http://www.w3.org/2000/svg">
	<circle cx="50" cy="50" r="37" stroke="currentColor" stroke-width="6" />
	<rect x="40.3158" y="68.1579" width="19.3684" height="2.42105" rx="1" fill="currentColor" />
	<rect x="47.5789" y="58.4737" width="4.84211" height="10.8947" rx="1" fill="currentColor" />
	<path
		d="M62.1053 46.3684C62.1053 48.1171 61.7922 49.8486 61.1838 51.4641C60.5755 53.0797 59.6838 54.5476 58.5597 55.7841C57.4356 57.0206 56.1012 58.0014 54.6325 58.6706C53.1638 59.3398 51.5897 59.6842 50 59.6842C48.4103 59.6842 46.8362 59.3398 45.3675 58.6706C43.8988 58.0014 42.5644 57.0206 41.4403 55.7841C40.3162 54.5476 39.4245 53.0797 38.8162 51.4641C38.2079 49.8486 37.8947 48.1171 37.8947 46.3684"
		stroke="currentColor" stroke-width="3" />
	<rect x="42.7368" y="25.7895" width="14.5263" height="27.8421" rx="7.26316" fill="currentColor" />
</svg>