<svg id="soundwaves" viewBox="0 0 120 80" xmlns="http://www.w3.org/2000/svg">
	<rect x="7" y="21" width="6" height="38" rx="3" fill="currentColor" />
	<rect x="16" y="20" width="6" height="40" rx="3" fill="currentColor" />
	<rect x="25" y="27" width="6" height="26" rx="3" fill="currentColor" />
	<rect x="34" y="10" width="6" height="60" rx="3" fill="currentColor" />
	<rect x="43" y="20" width="6" height="40" rx="3" fill="currentColor" />
	<rect x="52" y="29" width="6" height="22" rx="3" fill="currentColor" />
	<rect x="61" y="7" width="6" height="66" rx="3" fill="currentColor" />
	<rect x="70" y="18" width="6" height="44" rx="3" fill="currentColor" />
	<rect x="79" y="31" width="6" height="18" rx="3" fill="currentColor" />
	<rect x="88" y="24" width="6" height="32" rx="3" fill="currentColor" />
	<rect x="97" y="13" width="6" height="54" rx="3" fill="currentColor" />
	<rect x="106" y="26" width="6" height="28" rx="3" fill="currentColor" />
</svg>