<svg width="21" height="28" viewBox="0 0 21 28" fill="none" xmlns="http://www.w3.org/2000/svg">
	<path d="M9.9616 3.05702L2.48447 16.1856C0.405147 19.8366 1.03083 23.6444 4.44312 25.7735C7.44086 27.9139 11.5009 26.7026 13.6401 22.9465L19.7721 12.1585C19.9769 11.8052 19.8973 11.3019 19.5351 11.0957L18.7054 10.6231C18.3309 10.4098 17.8612 10.6132 17.6651 10.9585C17.4689 11.3039 11.524 21.7413 11.524 21.7413C10.6991 23.1896 8.44698 24.9634 5.84915 23.4838C3.47477 22.1315 3.57838 19.1713 4.59235 17.391L12.0716 4.25871C12.5695 3.38436 13.7939 2.4412 15.265 3.26905C16.4639 3.9437 16.7106 5.46615 16.0064 6.70271L9.48437 18.1543C9.31408 18.4533 9.02525 18.5235 8.76018 18.3725C8.48027 18.2131 8.37829 17.8961 8.60205 17.5033L13.7298 8.49976C13.9285 8.15097 13.8543 7.64991 13.4892 7.44197L12.6562 6.96759C12.2824 6.7547 11.8096 6.95391 11.6151 7.29539L6.48738 16.2989C5.38051 18.2424 6.21776 20.0234 7.51834 20.7641C8.81893 21.5049 10.3139 21.624 11.6028 19.3608L18.1217 7.91478C20.0174 4.58611 19.2832 2.46325 16.647 0.961856C14.0108 -0.539541 11.4538 0.43691 9.9616 3.05702Z" fill="black"/>
</svg>
