<svg viewBox="0 0 66 66" fill="none" xmlns="http://www.w3.org/2000/svg">
	<path fill-rule="evenodd" clip-rule="evenodd"
		d="M36 27.4444V23.0199C36 21.4673 34.5417 20.4969 33.375 21.2732L24.0492 27.4787C23.952 27.4594 23.852 27.4493 23.75 27.4493H16.75C15.7835 27.4493 15 28.3523 15 29.4662V37.5338C15 38.6477 15.7835 39.5506 16.75 39.5506H23.75C23.852 39.5506 23.952 39.5406 24.0491 39.5213L25.3893 40.4131L36 27.4444ZM29.5723 43.1964L33.375 45.7268C34.5417 46.5031 36 45.5327 36 43.9801V35.3404L29.5723 43.1964ZM39.4058 31.1777C39.4268 31.2253 39.4472 31.2731 39.4672 31.3212C39.8189 32.1705 40 33.0807 40 34C40 34.9192 39.8189 35.8295 39.4672 36.6788C39.1154 37.5281 38.5998 38.2997 37.9498 38.9497C37.5592 39.3403 37.5592 39.9734 37.9498 40.364C38.3403 40.7545 38.9734 40.7545 39.364 40.364C40.1997 39.5282 40.8626 38.5361 41.3149 37.4441C41.7672 36.3522 42 35.1819 42 34C42 32.8181 41.7672 31.6478 41.3149 30.5558C41.1626 30.1881 40.9864 29.8317 40.7877 29.4887L39.4058 31.1777ZM42.1239 27.8556C42.5329 28.4628 42.8812 29.1108 43.1627 29.7905C43.7155 31.1251 44 32.5555 44 34C44 35.4445 43.7155 36.8749 43.1627 38.2095C42.6099 39.5441 41.7996 40.7567 40.7782 41.7782C40.3877 42.1687 40.3877 42.8019 40.7782 43.1924C41.1687 43.5829 41.8019 43.5829 42.1924 43.1924C43.3996 41.9852 44.3571 40.5521 45.0104 38.9749C45.6638 37.3976 46 35.7072 46 34C46 32.2928 45.6638 30.6023 45.0104 29.0251C44.6011 28.0368 44.0723 27.1051 43.4374 26.2502L42.1239 27.8556ZM44.7379 24.6607C45.6073 25.7535 46.3217 26.9645 46.8582 28.2597C47.612 30.0796 48 32.0302 48 34C48 35.9698 47.612 37.9204 46.8582 39.7402C46.1044 41.5601 44.9995 43.2137 43.6066 44.6066C43.2161 44.9971 43.2161 45.6303 43.6066 46.0208C43.9971 46.4113 44.6303 46.4113 45.0208 46.0208C46.5994 44.4422 47.8516 42.5681 48.706 40.5056C49.5603 38.4431 50 36.2325 50 34C50 31.7675 49.5603 29.5569 48.706 27.4944C48.0427 25.8931 47.1396 24.4054 46.0301 23.0814L44.7379 24.6607Z"
		fill="currentColor" />
	<line x1="44.3518" y1="17.518" x2="20.518" y2="46.6482" stroke="currentColor" stroke-width="5" stroke-linecap="round" />
</svg>