<svg viewBox="0 0 66 66" fill="none" xmlns="http://www.w3.org/2000/svg">
	<path
		d="M46.7703 34.755C46.8398 34.1925 46.886 33.6075 46.886 33C46.886 32.3925 46.8398 31.8075 46.7472 31.245L50.6584 28.275C51.0056 28.005 51.0981 27.51 50.8899 27.1275L47.1869 20.895C46.9555 20.49 46.4695 20.355 46.0529 20.49L41.4473 22.29C40.4753 21.57 39.457 20.985 38.323 20.535L37.6287 15.765C37.5593 15.315 37.1658 15 36.7029 15H29.2971C28.8342 15 28.4639 15.315 28.3945 15.765L27.7002 20.535C26.5661 20.985 25.5247 21.5925 24.5758 22.29L19.9703 20.49C19.5537 20.3325 19.0677 20.49 18.8362 20.895L15.1333 27.1275C14.9019 27.5325 14.9944 28.005 15.3647 28.275L19.276 31.245C19.1834 31.8075 19.114 32.415 19.114 33C19.114 33.585 19.1602 34.1925 19.2528 34.755L15.3416 37.725C14.9944 37.995 14.9019 38.49 15.1102 38.8725L18.8131 45.105C19.0445 45.51 19.5305 45.645 19.9471 45.51L24.5527 43.71C25.5247 44.43 26.543 45.015 27.677 45.465L28.3713 50.235C28.4639 50.685 28.8342 51 29.2971 51H36.7029C37.1658 51 37.5592 50.685 37.6055 50.235L38.2998 45.465C39.4339 45.015 40.4753 44.4075 41.4242 43.71L46.0297 45.51C46.4463 45.6675 46.9323 45.51 47.1638 45.105L50.8667 38.8725C51.0981 38.4675 51.0056 37.995 50.6353 37.725L46.7703 34.755ZM33 39.75C29.1813 39.75 26.057 36.7125 26.057 33C26.057 29.2875 29.1813 26.25 33 26.25C36.8187 26.25 39.943 29.2875 39.943 33C39.943 36.7125 36.8187 39.75 33 39.75Z"
		fill="currentColor" />
</svg>