<svg viewBox="0 0 66 66" fill="none" xmlns="http://www.w3.org/2000/svg">
	<path fill-rule="evenodd" clip-rule="evenodd"
		d="M24.0491 39.5213C23.9519 39.5406 23.852 39.5506 23.75 39.5506H16.75C15.7835 39.5506 15 38.6477 15 37.5338V29.4662C15 28.3523 15.7835 27.4493 16.75 27.4493H23.75C23.852 27.4493 23.9519 27.4594 24.0492 27.4787L33.375 21.2732C34.5417 20.4969 36 21.4673 36 23.0199V43.9801C36 45.5327 34.5417 46.5031 33.375 45.7268L24.0491 39.5213Z"
		fill="#80FFAA" />
	<path
		d="M39.364 27.636C38.9734 27.2455 38.3403 27.2455 37.9498 27.636C37.5592 28.0266 37.5592 28.6597 37.9498 29.0502L39.364 27.636ZM40.391 30.9385L39.4672 31.3212L39.4672 31.3212L40.391 30.9385ZM37.9498 38.9497C37.5592 39.3403 37.5592 39.9734 37.9498 40.364C38.3403 40.7545 38.9734 40.7545 39.364 40.364L37.9498 38.9497ZM37.9498 29.0502C38.5998 29.7003 39.1154 30.4719 39.4672 31.3212L41.3149 30.5558C40.8626 29.4639 40.1997 28.4718 39.364 27.636L37.9498 29.0502ZM39.4672 31.3212C39.8189 32.1705 40 33.0807 40 34H42C42 32.8181 41.7672 31.6478 41.3149 30.5558L39.4672 31.3212ZM40 34C40 34.9192 39.8189 35.8295 39.4672 36.6788L41.3149 37.4441C41.7672 36.3522 42 35.1819 42 34H40ZM39.4672 36.6788C39.1154 37.5281 38.5998 38.2997 37.9498 38.9497L39.364 40.364C40.1997 39.5282 40.8626 38.5361 41.3149 37.4441L39.4672 36.6788Z"
		fill="#80FFAA" />
	<path
		d="M42.1925 24.8076C41.8019 24.4171 41.1688 24.4171 40.7782 24.8076C40.3877 25.1981 40.3877 25.8313 40.7782 26.2218L42.1925 24.8076ZM40.7782 41.7782C40.3877 42.1687 40.3877 42.8019 40.7782 43.1924C41.1688 43.5829 41.8019 43.5829 42.1925 43.1924L40.7782 41.7782ZM40.7782 26.2218C41.7997 27.2433 42.6099 28.4559 43.1627 29.7905L45.0105 29.0251C44.3572 27.4479 43.3996 26.0148 42.1925 24.8076L40.7782 26.2218ZM43.1627 29.7905C43.7155 31.1251 44.0001 32.5555 44.0001 34H46.0001C46.0001 32.2928 45.6638 30.6023 45.0105 29.0251L43.1627 29.7905ZM44.0001 34C44.0001 35.4445 43.7155 36.8749 43.1627 38.2095L45.0105 38.9749C45.6638 37.3976 46.0001 35.7072 46.0001 34H44.0001ZM43.1627 38.2095C42.6099 39.5441 41.7997 40.7567 40.7782 41.7782L42.1925 43.1924C43.3996 41.9852 44.3572 40.5521 45.0105 38.9749L43.1627 38.2095Z"
		fill="#80FFAA" />
	<path
		d="M45.0208 21.9792C44.6303 21.5886 43.9971 21.5886 43.6066 21.9792C43.2161 22.3697 43.2161 23.0029 43.6066 23.3934L45.0208 21.9792ZM47.7821 27.8771L46.8582 28.2597L46.8582 28.2597L47.7821 27.8771ZM43.6066 44.6066C43.2161 44.9971 43.2161 45.6303 43.6066 46.0208C43.9971 46.4113 44.6303 46.4113 45.0208 46.0208L43.6066 44.6066ZM43.6066 23.3934C44.9995 24.7863 46.1044 26.4399 46.8582 28.2597L48.706 27.4944C47.8516 25.4318 46.5994 23.5578 45.0208 21.9792L43.6066 23.3934ZM46.8582 28.2597C47.612 30.0796 48 32.0302 48 34H50C50 31.7675 49.5603 29.5569 48.706 27.4944L46.8582 28.2597ZM48 34C48 35.9698 47.612 37.9204 46.8582 39.7402L48.706 40.5056C49.5603 38.4431 50 36.2325 50 34H48ZM46.8582 39.7402C46.1044 41.5601 44.9995 43.2137 43.6066 44.6066L45.0208 46.0208C46.5994 44.4422 47.8516 42.5681 48.706 40.5056L46.8582 39.7402Z"
		fill="#80FFAA" />
</svg>